<mxfile host="app.diagrams.net" agent="Mozilla/5.0 (Windows NT 10.0; Win64; x64) AppleWebKit/537.36 (KHTML, like Gecko) Chrome/139.0.0.0 Safari/537.36" version="28.1.0">
  <diagram name="Page-1" id="sgsQ7huBA6DXoUmc6Gqc">
    <mxGraphModel dx="3284" dy="1924" grid="0" gridSize="10" guides="1" tooltips="1" connect="1" arrows="1" fold="1" page="0" pageScale="1" pageWidth="1100" pageHeight="850" math="0" shadow="0">
      <root>
        <mxCell id="0" />
        <mxCell id="1" parent="0" />
        <mxCell id="xZ1nP8tXkbg0MVMLY2VP-4" value="sd Create New Post" style="shape=umlFrame;whiteSpace=wrap;html=1;pointerEvents=0;width=134;height=32;movable=1;resizable=1;rotatable=1;deletable=1;editable=1;locked=0;connectable=1;" parent="1" vertex="1">
          <mxGeometry x="-984" y="-527" width="1199" height="1998" as="geometry" />
        </mxCell>
        <mxCell id="xZ1nP8tXkbg0MVMLY2VP-5" value=":PostHistory" style="html=1;whiteSpace=wrap;" parent="1" vertex="1">
          <mxGeometry x="-373" y="-488" width="102" height="22" as="geometry" />
        </mxCell>
        <mxCell id="xZ1nP8tXkbg0MVMLY2VP-6" value=":PostMenuUICtrl" style="html=1;whiteSpace=wrap;" parent="1" vertex="1">
          <mxGeometry x="-598" y="-488" width="98" height="22" as="geometry" />
        </mxCell>
        <mxCell id="xZ1nP8tXkbg0MVMLY2VP-7" value=":PostMenuUI" style="html=1;whiteSpace=wrap;" parent="1" vertex="1">
          <mxGeometry x="-802" y="-445" width="98" height="22" as="geometry" />
        </mxCell>
        <mxCell id="xZ1nP8tXkbg0MVMLY2VP-8" value="User" style="shape=umlActor;verticalLabelPosition=bottom;verticalAlign=top;html=1;" parent="1" vertex="1">
          <mxGeometry x="-954" y="-477" width="18.37" height="32" as="geometry" />
        </mxCell>
        <mxCell id="xZ1nP8tXkbg0MVMLY2VP-9" value="" style="html=1;points=[[0,0,0,0,5],[0,1,0,0,-5],[1,0,0,0,5],[1,1,0,0,-5]];perimeter=orthogonalPerimeter;outlineConnect=0;targetShapes=umlLifeline;portConstraint=eastwest;newEdgeStyle={&quot;curved&quot;:0,&quot;rounded&quot;:0};fillColor=#999999;" parent="1" vertex="1">
          <mxGeometry x="-949.81" y="-423" width="10" height="1867" as="geometry" />
        </mxCell>
        <mxCell id="xZ1nP8tXkbg0MVMLY2VP-14" style="edgeStyle=orthogonalEdgeStyle;rounded=0;orthogonalLoop=1;jettySize=auto;html=1;exitX=0;exitY=0.75;exitDx=0;exitDy=0;entryX=1;entryY=0.5;entryDx=0;entryDy=0;dashed=1;" parent="1" source="xZ1nP8tXkbg0MVMLY2VP-13" target="xZ1nP8tXkbg0MVMLY2VP-7" edge="1">
          <mxGeometry relative="1" as="geometry" />
        </mxCell>
        <mxCell id="xZ1nP8tXkbg0MVMLY2VP-13" value="" style="rounded=0;whiteSpace=wrap;html=1;fillColor=default;" parent="1" vertex="1">
          <mxGeometry x="-554.5" y="-466" width="11" height="42" as="geometry" />
        </mxCell>
        <mxCell id="xZ1nP8tXkbg0MVMLY2VP-15" value="startUI()" style="text;html=1;align=center;verticalAlign=middle;whiteSpace=wrap;rounded=0;" parent="1" vertex="1">
          <mxGeometry x="-658" y="-463" width="60" height="30" as="geometry" />
        </mxCell>
        <mxCell id="xZ1nP8tXkbg0MVMLY2VP-16" value="" style="rounded=0;whiteSpace=wrap;html=1;fillColor=default;" parent="1" vertex="1">
          <mxGeometry x="-758.5" y="-423" width="11" height="42" as="geometry" />
        </mxCell>
        <mxCell id="xZ1nP8tXkbg0MVMLY2VP-17" value="" style="endArrow=classic;html=1;rounded=0;entryX=0;entryY=0.5;entryDx=0;entryDy=0;" parent="1" source="xZ1nP8tXkbg0MVMLY2VP-9" target="xZ1nP8tXkbg0MVMLY2VP-16" edge="1">
          <mxGeometry width="50" height="50" relative="1" as="geometry">
            <mxPoint x="-851" y="-360" as="sourcePoint" />
            <mxPoint x="-801" y="-410" as="targetPoint" />
          </mxGeometry>
        </mxCell>
        <mxCell id="xZ1nP8tXkbg0MVMLY2VP-18" value="selectCreateNewPostOpt()" style="text;html=1;align=center;verticalAlign=middle;whiteSpace=wrap;rounded=0;" parent="1" vertex="1">
          <mxGeometry x="-883" y="-424" width="60" height="30" as="geometry" />
        </mxCell>
        <mxCell id="xZ1nP8tXkbg0MVMLY2VP-21" value="" style="endArrow=classic;html=1;rounded=0;exitX=0;exitY=0.75;exitDx=0;exitDy=0;" parent="1" edge="1">
          <mxGeometry width="50" height="50" relative="1" as="geometry">
            <mxPoint x="-758.5" y="-384.5" as="sourcePoint" />
            <mxPoint x="-939.8100000000001" y="-384.5" as="targetPoint" />
          </mxGeometry>
        </mxCell>
        <mxCell id="xZ1nP8tXkbg0MVMLY2VP-22" value="displayItemDetailsForm()" style="text;html=1;align=center;verticalAlign=middle;whiteSpace=wrap;rounded=0;" parent="1" vertex="1">
          <mxGeometry x="-883" y="-407" width="60" height="30" as="geometry" />
        </mxCell>
        <mxCell id="xZ1nP8tXkbg0MVMLY2VP-30" style="edgeStyle=orthogonalEdgeStyle;rounded=0;orthogonalLoop=1;jettySize=auto;html=1;exitX=1;exitY=0.75;exitDx=0;exitDy=0;entryX=0;entryY=0.75;entryDx=0;entryDy=0;" parent="1" source="xZ1nP8tXkbg0MVMLY2VP-24" target="xZ1nP8tXkbg0MVMLY2VP-27" edge="1">
          <mxGeometry relative="1" as="geometry" />
        </mxCell>
        <mxCell id="xZ1nP8tXkbg0MVMLY2VP-24" value="" style="rounded=0;whiteSpace=wrap;html=1;fillColor=default;" parent="1" vertex="1">
          <mxGeometry x="-758.5" y="-354" width="11" height="42" as="geometry" />
        </mxCell>
        <mxCell id="xZ1nP8tXkbg0MVMLY2VP-25" value="" style="endArrow=classic;html=1;rounded=0;entryX=0;entryY=0.25;entryDx=0;entryDy=0;" parent="1" edge="1">
          <mxGeometry width="50" height="50" relative="1" as="geometry">
            <mxPoint x="-939.8100000000001" y="-343.5000000000002" as="sourcePoint" />
            <mxPoint x="-758.5" y="-343.5000000000002" as="targetPoint" />
          </mxGeometry>
        </mxCell>
        <mxCell id="xZ1nP8tXkbg0MVMLY2VP-26" value="enterItemName()" style="text;html=1;align=center;verticalAlign=middle;whiteSpace=wrap;rounded=0;" parent="1" vertex="1">
          <mxGeometry x="-883" y="-368" width="60" height="30" as="geometry" />
        </mxCell>
        <mxCell id="xZ1nP8tXkbg0MVMLY2VP-27" value="" style="rounded=0;whiteSpace=wrap;html=1;fillColor=default;" parent="1" vertex="1">
          <mxGeometry x="-554.5" y="-354" width="11" height="42" as="geometry" />
        </mxCell>
        <mxCell id="xZ1nP8tXkbg0MVMLY2VP-31" value="checkNull()" style="text;html=1;align=center;verticalAlign=middle;whiteSpace=wrap;rounded=0;" parent="1" vertex="1">
          <mxGeometry x="-681" y="-348" width="60" height="30" as="geometry" />
        </mxCell>
        <mxCell id="xZ1nP8tXkbg0MVMLY2VP-32" style="edgeStyle=orthogonalEdgeStyle;rounded=0;orthogonalLoop=1;jettySize=auto;html=1;exitX=1;exitY=0.75;exitDx=0;exitDy=0;entryX=0;entryY=0.75;entryDx=0;entryDy=0;" parent="1" source="xZ1nP8tXkbg0MVMLY2VP-33" target="xZ1nP8tXkbg0MVMLY2VP-36" edge="1">
          <mxGeometry relative="1" as="geometry" />
        </mxCell>
        <mxCell id="xZ1nP8tXkbg0MVMLY2VP-33" value="" style="rounded=0;whiteSpace=wrap;html=1;fillColor=default;" parent="1" vertex="1">
          <mxGeometry x="-758.4999999999999" y="-144" width="11" height="42" as="geometry" />
        </mxCell>
        <mxCell id="xZ1nP8tXkbg0MVMLY2VP-34" value="" style="endArrow=classic;html=1;rounded=0;entryX=0;entryY=0.25;entryDx=0;entryDy=0;" parent="1" edge="1">
          <mxGeometry width="50" height="50" relative="1" as="geometry">
            <mxPoint x="-939.81" y="-133.50000000000023" as="sourcePoint" />
            <mxPoint x="-758.4999999999999" y="-133.50000000000023" as="targetPoint" />
          </mxGeometry>
        </mxCell>
        <mxCell id="xZ1nP8tXkbg0MVMLY2VP-35" value="selectItemCategory()" style="text;html=1;align=center;verticalAlign=middle;whiteSpace=wrap;rounded=0;" parent="1" vertex="1">
          <mxGeometry x="-882.9999999999999" y="-158" width="60" height="30" as="geometry" />
        </mxCell>
        <mxCell id="xZ1nP8tXkbg0MVMLY2VP-36" value="" style="rounded=0;whiteSpace=wrap;html=1;fillColor=default;" parent="1" vertex="1">
          <mxGeometry x="-554.4999999999999" y="-144" width="11" height="42" as="geometry" />
        </mxCell>
        <mxCell id="xZ1nP8tXkbg0MVMLY2VP-37" value="checkNull()" style="text;html=1;align=center;verticalAlign=middle;whiteSpace=wrap;rounded=0;" parent="1" vertex="1">
          <mxGeometry x="-680.9999999999999" y="-138" width="60" height="30" as="geometry" />
        </mxCell>
        <mxCell id="xZ1nP8tXkbg0MVMLY2VP-38" style="edgeStyle=orthogonalEdgeStyle;rounded=0;orthogonalLoop=1;jettySize=auto;html=1;exitX=1;exitY=0.75;exitDx=0;exitDy=0;entryX=0;entryY=0.75;entryDx=0;entryDy=0;" parent="1" source="xZ1nP8tXkbg0MVMLY2VP-39" target="xZ1nP8tXkbg0MVMLY2VP-42" edge="1">
          <mxGeometry relative="1" as="geometry" />
        </mxCell>
        <mxCell id="xZ1nP8tXkbg0MVMLY2VP-39" value="" style="rounded=0;whiteSpace=wrap;html=1;fillColor=default;" parent="1" vertex="1">
          <mxGeometry x="-758.5" y="79" width="11" height="42" as="geometry" />
        </mxCell>
        <mxCell id="xZ1nP8tXkbg0MVMLY2VP-40" value="" style="endArrow=classic;html=1;rounded=0;entryX=0;entryY=0.25;entryDx=0;entryDy=0;" parent="1" edge="1">
          <mxGeometry width="50" height="50" relative="1" as="geometry">
            <mxPoint x="-939.81" y="89.49999999999977" as="sourcePoint" />
            <mxPoint x="-758.5" y="89.49999999999977" as="targetPoint" />
          </mxGeometry>
        </mxCell>
        <mxCell id="xZ1nP8tXkbg0MVMLY2VP-41" value="enterDescription()" style="text;html=1;align=center;verticalAlign=middle;whiteSpace=wrap;rounded=0;" parent="1" vertex="1">
          <mxGeometry x="-883" y="65" width="60" height="30" as="geometry" />
        </mxCell>
        <mxCell id="xZ1nP8tXkbg0MVMLY2VP-42" value="" style="rounded=0;whiteSpace=wrap;html=1;fillColor=default;" parent="1" vertex="1">
          <mxGeometry x="-554.5" y="79" width="11" height="42" as="geometry" />
        </mxCell>
        <mxCell id="xZ1nP8tXkbg0MVMLY2VP-43" value="checkNull()" style="text;html=1;align=center;verticalAlign=middle;whiteSpace=wrap;rounded=0;" parent="1" vertex="1">
          <mxGeometry x="-681" y="85" width="60" height="30" as="geometry" />
        </mxCell>
        <mxCell id="xZ1nP8tXkbg0MVMLY2VP-44" style="edgeStyle=orthogonalEdgeStyle;rounded=0;orthogonalLoop=1;jettySize=auto;html=1;exitX=1;exitY=0.75;exitDx=0;exitDy=0;entryX=0;entryY=0.75;entryDx=0;entryDy=0;" parent="1" source="xZ1nP8tXkbg0MVMLY2VP-45" target="xZ1nP8tXkbg0MVMLY2VP-48" edge="1">
          <mxGeometry relative="1" as="geometry" />
        </mxCell>
        <mxCell id="xZ1nP8tXkbg0MVMLY2VP-45" value="" style="rounded=0;whiteSpace=wrap;html=1;fillColor=default;" parent="1" vertex="1">
          <mxGeometry x="-758.5" y="278" width="11" height="42" as="geometry" />
        </mxCell>
        <mxCell id="xZ1nP8tXkbg0MVMLY2VP-46" value="" style="endArrow=classic;html=1;rounded=0;entryX=0;entryY=0.25;entryDx=0;entryDy=0;" parent="1" edge="1">
          <mxGeometry width="50" height="50" relative="1" as="geometry">
            <mxPoint x="-939.81" y="288.4999999999998" as="sourcePoint" />
            <mxPoint x="-758.5" y="288.4999999999998" as="targetPoint" />
          </mxGeometry>
        </mxCell>
        <mxCell id="xZ1nP8tXkbg0MVMLY2VP-47" value="enterDate()" style="text;html=1;align=center;verticalAlign=middle;whiteSpace=wrap;rounded=0;" parent="1" vertex="1">
          <mxGeometry x="-883" y="264" width="60" height="30" as="geometry" />
        </mxCell>
        <mxCell id="xZ1nP8tXkbg0MVMLY2VP-48" value="" style="rounded=0;whiteSpace=wrap;html=1;fillColor=default;" parent="1" vertex="1">
          <mxGeometry x="-554.5" y="278" width="11" height="42" as="geometry" />
        </mxCell>
        <mxCell id="xZ1nP8tXkbg0MVMLY2VP-49" value="checkNull()" style="text;html=1;align=center;verticalAlign=middle;whiteSpace=wrap;rounded=0;" parent="1" vertex="1">
          <mxGeometry x="-681" y="284" width="60" height="30" as="geometry" />
        </mxCell>
        <mxCell id="xZ1nP8tXkbg0MVMLY2VP-50" style="edgeStyle=orthogonalEdgeStyle;rounded=0;orthogonalLoop=1;jettySize=auto;html=1;exitX=1;exitY=0.75;exitDx=0;exitDy=0;entryX=0;entryY=0.75;entryDx=0;entryDy=0;" parent="1" source="xZ1nP8tXkbg0MVMLY2VP-51" target="xZ1nP8tXkbg0MVMLY2VP-54" edge="1">
          <mxGeometry relative="1" as="geometry" />
        </mxCell>
        <mxCell id="xZ1nP8tXkbg0MVMLY2VP-51" value="" style="rounded=0;whiteSpace=wrap;html=1;fillColor=default;" parent="1" vertex="1">
          <mxGeometry x="-758.5" y="501" width="11" height="42" as="geometry" />
        </mxCell>
        <mxCell id="xZ1nP8tXkbg0MVMLY2VP-52" value="" style="endArrow=classic;html=1;rounded=0;entryX=0;entryY=0.25;entryDx=0;entryDy=0;" parent="1" edge="1">
          <mxGeometry width="50" height="50" relative="1" as="geometry">
            <mxPoint x="-939.81" y="511.4999999999998" as="sourcePoint" />
            <mxPoint x="-758.5" y="511.4999999999998" as="targetPoint" />
          </mxGeometry>
        </mxCell>
        <mxCell id="xZ1nP8tXkbg0MVMLY2VP-53" value="enterIncidentLocation()" style="text;html=1;align=center;verticalAlign=middle;whiteSpace=wrap;rounded=0;" parent="1" vertex="1">
          <mxGeometry x="-883" y="487" width="60" height="30" as="geometry" />
        </mxCell>
        <mxCell id="xZ1nP8tXkbg0MVMLY2VP-54" value="" style="rounded=0;whiteSpace=wrap;html=1;fillColor=default;" parent="1" vertex="1">
          <mxGeometry x="-554.5" y="501" width="11" height="42" as="geometry" />
        </mxCell>
        <mxCell id="xZ1nP8tXkbg0MVMLY2VP-55" value="checkNull()" style="text;html=1;align=center;verticalAlign=middle;whiteSpace=wrap;rounded=0;" parent="1" vertex="1">
          <mxGeometry x="-681" y="507" width="60" height="30" as="geometry" />
        </mxCell>
        <mxCell id="xZ1nP8tXkbg0MVMLY2VP-56" style="edgeStyle=orthogonalEdgeStyle;rounded=0;orthogonalLoop=1;jettySize=auto;html=1;exitX=1;exitY=0.75;exitDx=0;exitDy=0;entryX=0;entryY=0.75;entryDx=0;entryDy=0;" parent="1" source="xZ1nP8tXkbg0MVMLY2VP-57" target="xZ1nP8tXkbg0MVMLY2VP-60" edge="1">
          <mxGeometry relative="1" as="geometry" />
        </mxCell>
        <mxCell id="xZ1nP8tXkbg0MVMLY2VP-57" value="" style="rounded=0;whiteSpace=wrap;html=1;fillColor=default;" parent="1" vertex="1">
          <mxGeometry x="-758.5" y="761" width="11" height="42" as="geometry" />
        </mxCell>
        <mxCell id="xZ1nP8tXkbg0MVMLY2VP-58" value="" style="endArrow=classic;html=1;rounded=0;entryX=0;entryY=0.25;entryDx=0;entryDy=0;" parent="1" edge="1">
          <mxGeometry width="50" height="50" relative="1" as="geometry">
            <mxPoint x="-939.81" y="771.4999999999998" as="sourcePoint" />
            <mxPoint x="-758.5" y="771.4999999999998" as="targetPoint" />
          </mxGeometry>
        </mxCell>
        <mxCell id="xZ1nP8tXkbg0MVMLY2VP-59" value="enterContactDetails()" style="text;html=1;align=center;verticalAlign=middle;whiteSpace=wrap;rounded=0;" parent="1" vertex="1">
          <mxGeometry x="-883" y="747" width="60" height="30" as="geometry" />
        </mxCell>
        <mxCell id="xZ1nP8tXkbg0MVMLY2VP-60" value="" style="rounded=0;whiteSpace=wrap;html=1;fillColor=default;" parent="1" vertex="1">
          <mxGeometry x="-554.5" y="761" width="11" height="42" as="geometry" />
        </mxCell>
        <mxCell id="xZ1nP8tXkbg0MVMLY2VP-61" value="checkNull()" style="text;html=1;align=center;verticalAlign=middle;whiteSpace=wrap;rounded=0;" parent="1" vertex="1">
          <mxGeometry x="-681" y="767" width="60" height="30" as="geometry" />
        </mxCell>
        <mxCell id="xZ1nP8tXkbg0MVMLY2VP-62" value="opt" style="shape=umlFrame;whiteSpace=wrap;html=1;pointerEvents=0;" parent="1" vertex="1">
          <mxGeometry x="-825.5" y="817" width="349" height="125" as="geometry" />
        </mxCell>
        <mxCell id="xZ1nP8tXkbg0MVMLY2VP-66" style="edgeStyle=orthogonalEdgeStyle;rounded=0;orthogonalLoop=1;jettySize=auto;html=1;exitX=1;exitY=0.75;exitDx=0;exitDy=0;entryX=0;entryY=0.75;entryDx=0;entryDy=0;" parent="1" source="xZ1nP8tXkbg0MVMLY2VP-63" target="xZ1nP8tXkbg0MVMLY2VP-64" edge="1">
          <mxGeometry relative="1" as="geometry" />
        </mxCell>
        <mxCell id="xZ1nP8tXkbg0MVMLY2VP-63" value="" style="rounded=0;whiteSpace=wrap;html=1;fillColor=default;" parent="1" vertex="1">
          <mxGeometry x="-758.5" y="853" width="11" height="42" as="geometry" />
        </mxCell>
        <mxCell id="xZ1nP8tXkbg0MVMLY2VP-64" value="" style="rounded=0;whiteSpace=wrap;html=1;fillColor=default;" parent="1" vertex="1">
          <mxGeometry x="-554.5" y="853" width="11" height="42" as="geometry" />
        </mxCell>
        <mxCell id="xZ1nP8tXkbg0MVMLY2VP-67" value="checkDataType()" style="text;html=1;align=center;verticalAlign=middle;whiteSpace=wrap;rounded=0;" parent="1" vertex="1">
          <mxGeometry x="-681" y="859" width="60" height="30" as="geometry" />
        </mxCell>
        <mxCell id="xZ1nP8tXkbg0MVMLY2VP-68" value="[enterContactDetails != null]" style="text;strokeColor=none;align=center;fillColor=none;html=1;verticalAlign=middle;whiteSpace=wrap;rounded=0;" parent="1" vertex="1">
          <mxGeometry x="-736.3" y="835" width="170.59" height="30" as="geometry" />
        </mxCell>
        <mxCell id="xZ1nP8tXkbg0MVMLY2VP-69" value="opt" style="shape=umlFrame;whiteSpace=wrap;html=1;pointerEvents=0;" parent="1" vertex="1">
          <mxGeometry x="-975" y="973" width="503" height="125" as="geometry" />
        </mxCell>
        <mxCell id="xZ1nP8tXkbg0MVMLY2VP-76" style="edgeStyle=orthogonalEdgeStyle;rounded=0;orthogonalLoop=1;jettySize=auto;html=1;exitX=1;exitY=0.75;exitDx=0;exitDy=0;entryX=0;entryY=0.75;entryDx=0;entryDy=0;" parent="1" source="xZ1nP8tXkbg0MVMLY2VP-70" target="xZ1nP8tXkbg0MVMLY2VP-75" edge="1">
          <mxGeometry relative="1" as="geometry" />
        </mxCell>
        <mxCell id="xZ1nP8tXkbg0MVMLY2VP-70" value="" style="rounded=0;whiteSpace=wrap;html=1;fillColor=default;" parent="1" vertex="1">
          <mxGeometry x="-758.5" y="1008" width="11" height="42" as="geometry" />
        </mxCell>
        <mxCell id="xZ1nP8tXkbg0MVMLY2VP-71" value="" style="endArrow=classic;html=1;rounded=0;entryX=0;entryY=0.25;entryDx=0;entryDy=0;" parent="1" edge="1">
          <mxGeometry width="50" height="50" relative="1" as="geometry">
            <mxPoint x="-939.81" y="1017" as="sourcePoint" />
            <mxPoint x="-758.5" y="1017" as="targetPoint" />
          </mxGeometry>
        </mxCell>
        <mxCell id="xZ1nP8tXkbg0MVMLY2VP-72" value="" style="endArrow=classic;html=1;rounded=0;entryX=0;entryY=0.25;entryDx=0;entryDy=0;" parent="1" edge="1">
          <mxGeometry width="50" height="50" relative="1" as="geometry">
            <mxPoint x="-939.81" y="1044" as="sourcePoint" />
            <mxPoint x="-758.5" y="1044" as="targetPoint" />
          </mxGeometry>
        </mxCell>
        <mxCell id="xZ1nP8tXkbg0MVMLY2VP-73" value="clickItemPhotosOpt()" style="text;strokeColor=none;align=center;fillColor=none;html=1;verticalAlign=middle;whiteSpace=wrap;rounded=0;" parent="1" vertex="1">
          <mxGeometry x="-883.0023816636029" y="992.0040602022059" width="60" height="30" as="geometry" />
        </mxCell>
        <mxCell id="xZ1nP8tXkbg0MVMLY2VP-74" value="selectUploadedPhoto()" style="text;strokeColor=none;align=center;fillColor=none;html=1;verticalAlign=middle;whiteSpace=wrap;rounded=0;" parent="1" vertex="1">
          <mxGeometry x="-883" y="1020" width="60" height="30" as="geometry" />
        </mxCell>
        <mxCell id="xZ1nP8tXkbg0MVMLY2VP-75" value="" style="rounded=0;whiteSpace=wrap;html=1;fillColor=default;" parent="1" vertex="1">
          <mxGeometry x="-554.5" y="1008" width="11" height="42" as="geometry" />
        </mxCell>
        <mxCell id="xZ1nP8tXkbg0MVMLY2VP-77" value="checkAttachment()" style="text;html=1;align=center;verticalAlign=middle;whiteSpace=wrap;rounded=0;" parent="1" vertex="1">
          <mxGeometry x="-681" y="1014" width="60" height="30" as="geometry" />
        </mxCell>
        <mxCell id="xZ1nP8tXkbg0MVMLY2VP-82" style="edgeStyle=orthogonalEdgeStyle;rounded=0;orthogonalLoop=1;jettySize=auto;html=1;exitX=1;exitY=0.75;exitDx=0;exitDy=0;entryX=0;entryY=0.75;entryDx=0;entryDy=0;" parent="1" source="xZ1nP8tXkbg0MVMLY2VP-78" target="xZ1nP8tXkbg0MVMLY2VP-81" edge="1">
          <mxGeometry relative="1" as="geometry" />
        </mxCell>
        <mxCell id="xZ1nP8tXkbg0MVMLY2VP-78" value="" style="rounded=0;whiteSpace=wrap;html=1;fillColor=default;" parent="1" vertex="1">
          <mxGeometry x="-758.5" y="1121" width="11" height="42" as="geometry" />
        </mxCell>
        <mxCell id="xZ1nP8tXkbg0MVMLY2VP-79" value="" style="endArrow=classic;html=1;rounded=0;entryX=0;entryY=0.25;entryDx=0;entryDy=0;" parent="1" edge="1">
          <mxGeometry width="50" height="50" relative="1" as="geometry">
            <mxPoint x="-939.81" y="1135" as="sourcePoint" />
            <mxPoint x="-758.5" y="1135" as="targetPoint" />
          </mxGeometry>
        </mxCell>
        <mxCell id="xZ1nP8tXkbg0MVMLY2VP-80" value="clickCreatePostBtn()" style="text;strokeColor=none;align=center;fillColor=none;html=1;verticalAlign=middle;whiteSpace=wrap;rounded=0;" parent="1" vertex="1">
          <mxGeometry x="-883" y="1108" width="60" height="30" as="geometry" />
        </mxCell>
        <mxCell id="xZ1nP8tXkbg0MVMLY2VP-86" style="edgeStyle=orthogonalEdgeStyle;rounded=0;orthogonalLoop=1;jettySize=auto;html=1;exitX=1;exitY=0.75;exitDx=0;exitDy=0;entryX=0;entryY=0.75;entryDx=0;entryDy=0;dashed=1;" parent="1" source="xZ1nP8tXkbg0MVMLY2VP-81" target="xZ1nP8tXkbg0MVMLY2VP-85" edge="1">
          <mxGeometry relative="1" as="geometry" />
        </mxCell>
        <mxCell id="xZ1nP8tXkbg0MVMLY2VP-81" value="" style="rounded=0;whiteSpace=wrap;html=1;fillColor=default;" parent="1" vertex="1">
          <mxGeometry x="-327.5" y="1121" width="11" height="42" as="geometry" />
        </mxCell>
        <mxCell id="xZ1nP8tXkbg0MVMLY2VP-83" value="savePost()" style="text;strokeColor=none;align=center;fillColor=none;html=1;verticalAlign=middle;whiteSpace=wrap;rounded=0;" parent="1" vertex="1">
          <mxGeometry x="-722" y="1125" width="60" height="30" as="geometry" />
        </mxCell>
        <mxCell id="xZ1nP8tXkbg0MVMLY2VP-85" value=":newPost:Post" style="html=1;whiteSpace=wrap;" parent="1" vertex="1">
          <mxGeometry x="-73" y="1137" width="102" height="22" as="geometry" />
        </mxCell>
        <mxCell id="xZ1nP8tXkbg0MVMLY2VP-87" value="" style="rounded=0;whiteSpace=wrap;html=1;fillColor=default;" parent="1" vertex="1">
          <mxGeometry x="-27.5" y="1159" width="11" height="13" as="geometry" />
        </mxCell>
        <mxCell id="xZ1nP8tXkbg0MVMLY2VP-89" value="opt" style="shape=umlFrame;whiteSpace=wrap;html=1;pointerEvents=0;" parent="1" vertex="1">
          <mxGeometry x="-968" y="1236" width="300" height="160" as="geometry" />
        </mxCell>
        <mxCell id="xZ1nP8tXkbg0MVMLY2VP-92" value="AddNewPost()" style="text;strokeColor=none;align=center;fillColor=none;html=1;verticalAlign=middle;whiteSpace=wrap;rounded=0;" parent="1" vertex="1">
          <mxGeometry x="-225" y="1127" width="60" height="30" as="geometry" />
        </mxCell>
        <mxCell id="xZ1nP8tXkbg0MVMLY2VP-93" value="" style="rounded=0;whiteSpace=wrap;html=1;fillColor=default;" parent="1" vertex="1">
          <mxGeometry x="-758.5" y="1265" width="11" height="42" as="geometry" />
        </mxCell>
        <mxCell id="xZ1nP8tXkbg0MVMLY2VP-95" value="" style="endArrow=classic;html=1;rounded=0;exitX=0;exitY=0.75;exitDx=0;exitDy=0;" parent="1" edge="1">
          <mxGeometry width="50" height="50" relative="1" as="geometry">
            <mxPoint x="-758.4999999999999" y="1285.5" as="sourcePoint" />
            <mxPoint x="-939.81" y="1285.5" as="targetPoint" />
          </mxGeometry>
        </mxCell>
        <mxCell id="xZ1nP8tXkbg0MVMLY2VP-96" value="saveDraft()" style="text;strokeColor=none;align=center;fillColor=none;html=1;verticalAlign=middle;whiteSpace=wrap;rounded=0;" parent="1" vertex="1">
          <mxGeometry x="-862" y="1259" width="60" height="30" as="geometry" />
        </mxCell>
        <mxCell id="xZ1nP8tXkbg0MVMLY2VP-97" value="" style="endArrow=none;dashed=1;html=1;rounded=0;exitX=0.194;exitY=1;exitDx=0;exitDy=0;exitPerimeter=0;" parent="1" source="xZ1nP8tXkbg0MVMLY2VP-4" edge="1">
          <mxGeometry width="50" height="50" relative="1" as="geometry">
            <mxPoint x="-678.99" y="22" as="sourcePoint" />
            <mxPoint x="-752.9977160493827" y="-381" as="targetPoint" />
          </mxGeometry>
        </mxCell>
        <mxCell id="xZ1nP8tXkbg0MVMLY2VP-98" value="" style="endArrow=none;dashed=1;html=1;rounded=0;exitX=0.365;exitY=1.003;exitDx=0;exitDy=0;exitPerimeter=0;entryX=0.5;entryY=1;entryDx=0;entryDy=0;" parent="1" edge="1" source="xZ1nP8tXkbg0MVMLY2VP-4">
          <mxGeometry width="50" height="50" relative="1" as="geometry">
            <mxPoint x="-548.0022839506173" y="928" as="sourcePoint" />
            <mxPoint x="-549" y="-423" as="targetPoint" />
          </mxGeometry>
        </mxCell>
        <mxCell id="xZ1nP8tXkbg0MVMLY2VP-99" value="" style="endArrow=none;dashed=1;html=1;rounded=0;exitX=0.553;exitY=1;exitDx=0;exitDy=0;exitPerimeter=0;entryX=0.5;entryY=1;entryDx=0;entryDy=0;" parent="1" source="xZ1nP8tXkbg0MVMLY2VP-4" edge="1">
          <mxGeometry width="50" height="50" relative="1" as="geometry">
            <mxPoint x="-321.91228395061734" y="885" as="sourcePoint" />
            <mxPoint x="-322.91" y="-466" as="targetPoint" />
          </mxGeometry>
        </mxCell>
        <mxCell id="SAnMXYTaCeD8F9zoPbuT-1" value="opt" style="shape=umlFrame;whiteSpace=wrap;html=1;pointerEvents=0;" vertex="1" parent="1">
          <mxGeometry x="-821" y="-295" width="349" height="125" as="geometry" />
        </mxCell>
        <mxCell id="SAnMXYTaCeD8F9zoPbuT-3" value="" style="rounded=0;whiteSpace=wrap;html=1;fillColor=none;" vertex="1" parent="1">
          <mxGeometry x="-758.51" y="-260" width="11" height="42" as="geometry" />
        </mxCell>
        <mxCell id="SAnMXYTaCeD8F9zoPbuT-4" value="" style="rounded=0;whiteSpace=wrap;html=1;fillColor=none;" vertex="1" parent="1">
          <mxGeometry x="-554.51" y="-260" width="11" height="42" as="geometry" />
        </mxCell>
        <mxCell id="SAnMXYTaCeD8F9zoPbuT-5" value="selectItemCategory()" style="text;html=1;align=center;verticalAlign=middle;whiteSpace=wrap;rounded=0;" vertex="1" parent="1">
          <mxGeometry x="-681.01" y="-254" width="60" height="30" as="geometry" />
        </mxCell>
        <mxCell id="SAnMXYTaCeD8F9zoPbuT-6" value="[enterItemName() != null]" style="text;strokeColor=none;align=center;fillColor=none;html=1;verticalAlign=middle;whiteSpace=wrap;rounded=0;" vertex="1" parent="1">
          <mxGeometry x="-736.31" y="-278" width="170.59" height="30" as="geometry" />
        </mxCell>
        <mxCell id="SAnMXYTaCeD8F9zoPbuT-7" value="" style="endArrow=classic;html=1;rounded=0;exitX=0;exitY=0.75;exitDx=0;exitDy=0;entryX=1;entryY=0.75;entryDx=0;entryDy=0;" edge="1" parent="1" target="SAnMXYTaCeD8F9zoPbuT-3">
          <mxGeometry width="50" height="50" relative="1" as="geometry">
            <mxPoint x="-554.99" y="-229" as="sourcePoint" />
            <mxPoint x="-736.3" y="-229" as="targetPoint" />
          </mxGeometry>
        </mxCell>
        <mxCell id="SAnMXYTaCeD8F9zoPbuT-9" value="opt" style="shape=umlFrame;whiteSpace=wrap;html=1;pointerEvents=0;" vertex="1" parent="1">
          <mxGeometry x="-821" y="-76" width="349" height="125" as="geometry" />
        </mxCell>
        <mxCell id="SAnMXYTaCeD8F9zoPbuT-10" value="" style="rounded=0;whiteSpace=wrap;html=1;fillColor=none;" vertex="1" parent="1">
          <mxGeometry x="-758.51" y="-41" width="11" height="42" as="geometry" />
        </mxCell>
        <mxCell id="SAnMXYTaCeD8F9zoPbuT-11" value="" style="rounded=0;whiteSpace=wrap;html=1;fillColor=none;" vertex="1" parent="1">
          <mxGeometry x="-554.51" y="-41" width="11" height="42" as="geometry" />
        </mxCell>
        <mxCell id="SAnMXYTaCeD8F9zoPbuT-12" value="enterDescription()" style="text;html=1;align=center;verticalAlign=middle;whiteSpace=wrap;rounded=0;" vertex="1" parent="1">
          <mxGeometry x="-681.01" y="-35" width="60" height="30" as="geometry" />
        </mxCell>
        <mxCell id="SAnMXYTaCeD8F9zoPbuT-13" value="[selectItemCategory() != null]" style="text;strokeColor=none;align=center;fillColor=none;html=1;verticalAlign=middle;whiteSpace=wrap;rounded=0;" vertex="1" parent="1">
          <mxGeometry x="-736.31" y="-59" width="170.59" height="30" as="geometry" />
        </mxCell>
        <mxCell id="SAnMXYTaCeD8F9zoPbuT-14" value="" style="endArrow=classic;html=1;rounded=0;exitX=0;exitY=0.75;exitDx=0;exitDy=0;entryX=1;entryY=0.75;entryDx=0;entryDy=0;" edge="1" parent="1" target="SAnMXYTaCeD8F9zoPbuT-10">
          <mxGeometry width="50" height="50" relative="1" as="geometry">
            <mxPoint x="-554.99" y="-10" as="sourcePoint" />
            <mxPoint x="-736.3" y="-10" as="targetPoint" />
          </mxGeometry>
        </mxCell>
        <mxCell id="SAnMXYTaCeD8F9zoPbuT-15" value="opt" style="shape=umlFrame;whiteSpace=wrap;html=1;pointerEvents=0;" vertex="1" parent="1">
          <mxGeometry x="-821" y="131" width="349" height="125" as="geometry" />
        </mxCell>
        <mxCell id="SAnMXYTaCeD8F9zoPbuT-16" value="" style="rounded=0;whiteSpace=wrap;html=1;fillColor=none;" vertex="1" parent="1">
          <mxGeometry x="-758.51" y="166" width="11" height="42" as="geometry" />
        </mxCell>
        <mxCell id="SAnMXYTaCeD8F9zoPbuT-17" value="" style="rounded=0;whiteSpace=wrap;html=1;fillColor=none;" vertex="1" parent="1">
          <mxGeometry x="-554.51" y="166" width="11" height="42" as="geometry" />
        </mxCell>
        <mxCell id="SAnMXYTaCeD8F9zoPbuT-18" value="enterDate()" style="text;html=1;align=center;verticalAlign=middle;whiteSpace=wrap;rounded=0;" vertex="1" parent="1">
          <mxGeometry x="-681.01" y="172" width="60" height="30" as="geometry" />
        </mxCell>
        <mxCell id="SAnMXYTaCeD8F9zoPbuT-19" value="[enterDescription() != null]" style="text;strokeColor=none;align=center;fillColor=none;html=1;verticalAlign=middle;whiteSpace=wrap;rounded=0;" vertex="1" parent="1">
          <mxGeometry x="-736.31" y="148" width="170.59" height="30" as="geometry" />
        </mxCell>
        <mxCell id="SAnMXYTaCeD8F9zoPbuT-20" value="" style="endArrow=classic;html=1;rounded=0;exitX=0;exitY=0.75;exitDx=0;exitDy=0;entryX=1;entryY=0.75;entryDx=0;entryDy=0;" edge="1" parent="1" target="SAnMXYTaCeD8F9zoPbuT-16">
          <mxGeometry width="50" height="50" relative="1" as="geometry">
            <mxPoint x="-554.99" y="197" as="sourcePoint" />
            <mxPoint x="-736.3" y="197" as="targetPoint" />
          </mxGeometry>
        </mxCell>
        <mxCell id="SAnMXYTaCeD8F9zoPbuT-21" value="opt" style="shape=umlFrame;whiteSpace=wrap;html=1;pointerEvents=0;" vertex="1" parent="1">
          <mxGeometry x="-821" y="345" width="349" height="125" as="geometry" />
        </mxCell>
        <mxCell id="SAnMXYTaCeD8F9zoPbuT-22" value="" style="rounded=0;whiteSpace=wrap;html=1;fillColor=none;" vertex="1" parent="1">
          <mxGeometry x="-758.51" y="380" width="11" height="42" as="geometry" />
        </mxCell>
        <mxCell id="SAnMXYTaCeD8F9zoPbuT-23" value="" style="rounded=0;whiteSpace=wrap;html=1;fillColor=none;" vertex="1" parent="1">
          <mxGeometry x="-554.51" y="380" width="11" height="42" as="geometry" />
        </mxCell>
        <mxCell id="SAnMXYTaCeD8F9zoPbuT-24" value="enterIncidentLocation()" style="text;html=1;align=center;verticalAlign=middle;whiteSpace=wrap;rounded=0;" vertex="1" parent="1">
          <mxGeometry x="-681.01" y="386" width="60" height="30" as="geometry" />
        </mxCell>
        <mxCell id="SAnMXYTaCeD8F9zoPbuT-25" value="[enterDate() != null]" style="text;strokeColor=none;align=center;fillColor=none;html=1;verticalAlign=middle;whiteSpace=wrap;rounded=0;" vertex="1" parent="1">
          <mxGeometry x="-736.31" y="362" width="170.59" height="30" as="geometry" />
        </mxCell>
        <mxCell id="SAnMXYTaCeD8F9zoPbuT-26" value="" style="endArrow=classic;html=1;rounded=0;exitX=0;exitY=0.75;exitDx=0;exitDy=0;entryX=1;entryY=0.75;entryDx=0;entryDy=0;" edge="1" parent="1" target="SAnMXYTaCeD8F9zoPbuT-22">
          <mxGeometry width="50" height="50" relative="1" as="geometry">
            <mxPoint x="-554.99" y="411" as="sourcePoint" />
            <mxPoint x="-736.3" y="411" as="targetPoint" />
          </mxGeometry>
        </mxCell>
        <mxCell id="SAnMXYTaCeD8F9zoPbuT-28" value="opt" style="shape=umlFrame;whiteSpace=wrap;html=1;pointerEvents=0;" vertex="1" parent="1">
          <mxGeometry x="-819" y="582" width="349" height="125" as="geometry" />
        </mxCell>
        <mxCell id="SAnMXYTaCeD8F9zoPbuT-29" value="" style="rounded=0;whiteSpace=wrap;html=1;fillColor=none;" vertex="1" parent="1">
          <mxGeometry x="-756.51" y="617" width="11" height="42" as="geometry" />
        </mxCell>
        <mxCell id="SAnMXYTaCeD8F9zoPbuT-30" value="" style="rounded=0;whiteSpace=wrap;html=1;fillColor=none;" vertex="1" parent="1">
          <mxGeometry x="-552.51" y="617" width="11" height="42" as="geometry" />
        </mxCell>
        <mxCell id="SAnMXYTaCeD8F9zoPbuT-31" value="enterContactDetails()" style="text;html=1;align=center;verticalAlign=middle;whiteSpace=wrap;rounded=0;" vertex="1" parent="1">
          <mxGeometry x="-679.01" y="623" width="60" height="30" as="geometry" />
        </mxCell>
        <mxCell id="SAnMXYTaCeD8F9zoPbuT-32" value="[enterIncidentLocation()&amp;nbsp;!= null]" style="text;strokeColor=none;align=center;fillColor=none;html=1;verticalAlign=middle;whiteSpace=wrap;rounded=0;" vertex="1" parent="1">
          <mxGeometry x="-734.31" y="599" width="170.59" height="30" as="geometry" />
        </mxCell>
        <mxCell id="SAnMXYTaCeD8F9zoPbuT-33" value="" style="endArrow=classic;html=1;rounded=0;exitX=0;exitY=0.75;exitDx=0;exitDy=0;entryX=1;entryY=0.75;entryDx=0;entryDy=0;" edge="1" parent="1" target="SAnMXYTaCeD8F9zoPbuT-29">
          <mxGeometry width="50" height="50" relative="1" as="geometry">
            <mxPoint x="-552.99" y="648" as="sourcePoint" />
            <mxPoint x="-734.3" y="648" as="targetPoint" />
          </mxGeometry>
        </mxCell>
        <mxCell id="SAnMXYTaCeD8F9zoPbuT-35" value="" style="endArrow=none;dashed=1;html=1;rounded=0;entryX=0.5;entryY=1;entryDx=0;entryDy=0;" edge="1" parent="1" target="xZ1nP8tXkbg0MVMLY2VP-87">
          <mxGeometry width="50" height="50" relative="1" as="geometry">
            <mxPoint x="-18" y="1473" as="sourcePoint" />
            <mxPoint x="17" y="1258" as="targetPoint" />
          </mxGeometry>
        </mxCell>
      </root>
    </mxGraphModel>
  </diagram>
</mxfile>
